<svg xmlns="http://www.w3.org/2000/svg" width="185.63" height="140" viewBox="0 0 185.63 140">
  <g id="Group_2457" data-name="Group 2457" transform="translate(-95 -247)">
    <g id="Group_165" data-name="Group 165" transform="translate(-101.491 108.764)">
      <g id="Group_124" data-name="Group 124" transform="translate(234.622 138.236)">
        <rect id="Rectangle_377" data-name="Rectangle 377" width="13.905" height="28.035" transform="translate(67.166 97.934)"/>
        <path id="Path_808" data-name="Path 808" d="M437.007,234.46a3.616,3.616,0,0,1-3.577,3.654H299.6a3.616,3.616,0,0,1-3.577-3.654V141.89a3.617,3.617,0,0,1,3.577-3.654H433.43a3.617,3.617,0,0,1,3.577,3.654Z" transform="translate(-289.507 -138.236)" fill="#060606"/>
        <path id="Path_809" data-name="Path 809" d="M423.157,234.46a3.624,3.624,0,0,1-3.593,3.654H285.093a3.624,3.624,0,0,1-3.594-3.654V141.89a3.625,3.625,0,0,1,3.594-3.654H419.564a3.624,3.624,0,0,1,3.593,3.654Z" transform="translate(-281.499 -138.236)" fill="#1dcb83"/>
        <rect id="Rectangle_378" data-name="Rectangle 378" width="133.572" height="91.656" transform="translate(4.043 4.111)" fill="#fff"/>
        <path id="Path_810" data-name="Path 810" d="M326.844,238.044l13.578-7.626L354,215.6l13.577,5.88L381.157,199.9l13.578,11.064,13.578,11.55,13.578-36.818" transform="translate(-306.504 -164.407)" fill="none" stroke="#000" stroke-miterlimit="10" stroke-width="1"/>
        <path id="Path_811" data-name="Path 811" d="M437.422,421.159a10.32,10.32,0,0,0-10.035-7.925H366.234a10.32,10.32,0,0,0-10.035,7.925Z" transform="translate(-322.692 -289.883)"/>
        <g id="Group_123" data-name="Group 123" transform="translate(10.841 16.08)">
          <g id="Group_122" data-name="Group 122">
            <path id="Path_812" data-name="Path 812" d="M305.667,174.3v73.563a.226.226,0,0,0,.224.224H420.123a.224.224,0,0,0,0-.449H305.891l.224.224V174.3a.224.224,0,0,0-.449,0Z" transform="translate(-305.667 -174.084)"/>
          </g>
          <rect id="Rectangle_379" data-name="Rectangle 379" width="3.33" height="58.611" transform="translate(102.882 11.581)" fill="#1dcb83"/>
          <rect id="Rectangle_380" data-name="Rectangle 380" width="3.33" height="21.83" transform="translate(89.304 48.362)" fill="#1dcb83"/>
          <rect id="Rectangle_381" data-name="Rectangle 381" width="3.33" height="33.39" transform="translate(75.725 36.801)" fill="#1dcb83"/>
          <rect id="Rectangle_382" data-name="Rectangle 382" width="3.33" height="44.331" transform="translate(62.147 25.86)" fill="#1dcb83"/>
          <rect id="Rectangle_383" data-name="Rectangle 383" width="3.33" height="23.037" transform="translate(48.569 47.155)" fill="#1dcb83"/>
          <rect id="Rectangle_384" data-name="Rectangle 384" width="3.33" height="28.707" transform="translate(34.99 41.484)" fill="#1dcb83"/>
          <rect id="Rectangle_385" data-name="Rectangle 385" width="3.33" height="13.794" transform="translate(21.412 56.398)" fill="#1dcb83"/>
          <rect id="Rectangle_386" data-name="Rectangle 386" width="3.33" height="6.28" transform="translate(7.833 63.912)" fill="#1dcb83"/>
          <circle id="Ellipse_11" data-name="Ellipse 11" cx="1.57" cy="1.57" r="1.57" transform="translate(7.929 55.988)" fill="#1dcb83"/>
          <circle id="Ellipse_12" data-name="Ellipse 12" cx="1.57" cy="1.57" r="1.57" transform="translate(21.507 48.362)" fill="#1dcb83"/>
          <circle id="Ellipse_13" data-name="Ellipse 13" cx="1.57" cy="1.57" r="1.57" transform="translate(35.087 33.548)" fill="#1dcb83"/>
          <circle id="Ellipse_14" data-name="Ellipse 14" cx="1.57" cy="1.57" r="1.57" transform="translate(48.664 39.428)" fill="#1dcb83"/>
          <circle id="Ellipse_15" data-name="Ellipse 15" cx="1.57" cy="1.57" r="1.57" transform="translate(62.242 17.842)" fill="#1dcb83"/>
          <circle id="Ellipse_16" data-name="Ellipse 16" cx="1.57" cy="1.57" r="1.57" transform="translate(75.821 28.906)" fill="#1dcb83"/>
          <circle id="Ellipse_17" data-name="Ellipse 17" cx="1.57" cy="1.57" r="1.57" transform="translate(89.399 40.456)" fill="#1dcb83"/>
          <circle id="Ellipse_18" data-name="Ellipse 18" cx="1.57" cy="1.57" r="1.57" transform="translate(102.978 3.638)" fill="#1dcb83"/>
        </g>
        <rect id="Rectangle_387" data-name="Rectangle 387" width="133.572" height="4.882" transform="translate(4.043 4.111)"/>
        <path id="Path_813" data-name="Path 813" d="M297.985,151.8a.851.851,0,1,1-.851-.852A.851.851,0,0,1,297.985,151.8Z" transform="translate(-289.652 -145.244)" fill="#fff"/>
        <path id="Path_814" data-name="Path 814" d="M306.929,151.8a.851.851,0,1,1-.851-.852A.851.851,0,0,1,306.929,151.8Z" transform="translate(-294.584 -145.244)" fill="#1dcb83"/>
        <path id="Path_815" data-name="Path 815" d="M315.874,151.8a.851.851,0,1,1-.851-.852A.851.851,0,0,1,315.874,151.8Z" transform="translate(-299.516 -145.244)" fill="#fff"/>
      </g>
      <g id="Group_164" data-name="Group 164" transform="translate(196.491 148.969)">
        <path id="Path_816" data-name="Path 816" d="M229.392,400.6c-1.451,3.506-4.042,10.032-3.848,11.448s1.064,6.469,1.554,6.723-4.717-.407-4.845-7.412a26.227,26.227,0,0,1,3.114-12.916Z" transform="translate(-210.695 -292.457)" fill="#ffcba3"/>
        <path id="Path_817" data-name="Path 817" d="M220.631,422.568c.485,1.465,1.005,6.1,2.1,7.727.641.955,2.354,1.745,2.243.741,1.781,2.486,1.587,2.279-.119,1.94s-3.922-1.143-4.239-6.456c-.551,2.117-.353,4.236-.722,4.092a5.9,5.9,0,0,0-.7-.22C220.3,425.641,218.368,423.883,220.631,422.568Z" transform="translate(-209.01 -305.763)"/>
        <path id="Path_818" data-name="Path 818" d="M212.939,404.763c.785,2.579,1.261,9.476.2,10.933s-.14,1.346,1.766,3.925.543,4.26,4.093,4.429c1.57.075,1.673.578.449-1.906-3.888-7.887-1.57-11.718-.841-16.765C219.089,402,212.939,404.763,212.939,404.763Z" transform="translate(-205.422 -295.358)" fill="#ffcba3"/>
        <g id="Group_125" data-name="Group 125" transform="translate(11.648 109.651)">
          <path id="Path_819" data-name="Path 819" d="M223.85,406.779c-.436,1.973-.575,3.985-.93,5.972-.3,1.652-.723,3.541-.247,5.193a.224.224,0,0,0,.432-.119c-.488-1.692.017-3.671.318-5.353.332-1.853.453-3.732.859-5.574.062-.282-.37-.4-.432-.119Z" transform="translate(-222.459 -406.617)"/>
        </g>
        <path id="Path_820" data-name="Path 820" d="M225.917,301.48c-1.121-5.383-3.812-16-3.962-20.708-.374-1.645-.673-1.271-.673-1.271a14.523,14.523,0,0,1-15.868-1.683c-2.318,2.691-3.57,4.224-3.57,4.224-.747,4.037-2.168,9.2.374,21.83s.972,10.617,1.57,19.513,1.719,12.708,1.719,12.708a14.443,14.443,0,0,0,8.149.523,11.048,11.048,0,0,0,.374-2.991,6.167,6.167,0,0,0,4.635.823c3.065-7.7,5.607-17.12,7.177-21.232S227.039,306.862,225.917,301.48Zm-12.485,24.053a110.041,110.041,0,0,1-.224-11.046c.224-5.046-.336-14.69,0-18.559,1.009,4.486,4.373,9.588,4.317,11.831S214.441,321.272,213.432,325.533Z" transform="translate(-198.85 -225.941)"/>
        <path id="Path_821" data-name="Path 821" d="M208.461,200.818c-2.355,1.682-4.261,3.813-3.364,10.2,5.1.785,6.28-.112,6.28-.112l-1.234-10.036Z" transform="translate(-201.112 -183.479)"/>
        <path id="Path_822" data-name="Path 822" d="M212.509,168.588c2.766-2.766,13.158-1.72,13.532,3.813,0,5.084-.673,4.635-.972,7.775a6.064,6.064,0,0,1-6.8,5.607,16.292,16.292,0,0,0,1.271,5.457l2.841.224s3.065,10.167-3.14,10.541-7.214-3.364-7.962-10.241c.187-2.654.449-9.009.449-9.009-5.271-.766-5.028-7.644-.71-4.149C211.762,170.906,212.509,168.588,212.509,168.588Z" transform="translate(-202.712 -164.893)" fill="#ffcba3"/>
        <path id="Path_823" data-name="Path 823" d="M219.376,238c1.682,1.906,7.607,2.131,8.691-1.682.392,9.307,1.457,20.241,1.962,20.8-4.037,1.4-9.644,1.85-12.279-.224C217.974,251.457,219.488,240.692,219.376,238Z" transform="translate(-208.214 -203.056)" fill="#fff"/>
        <path id="Path_824" data-name="Path 824" d="M235.083,220.336c.785,1.682,2.262,11.475,2.262,16.353s.617,12.223,3.252,16.709c2.579-.5,5.439-1.009,5.439-1.234.056-1.514-2.579-9.364-2.579-9.364,1.962-.112,3.14-2.916,2.859-7.625s-2.411-13.008-2.523-13.344-.5-1.682-4.261-1.346C239.419,219.588,235.045,219.626,235.083,220.336Z" transform="translate(-217.772 -193.951)" fill="#1dcb83"/>
        <path id="Path_825" data-name="Path 825" d="M221.219,247.9c1.308.038,4.486.561,4.486.561l.364,4.056-5.485-1.215Z" transform="translate(-209.777 -209.443)" fill="#ffcba3"/>
        <g id="Group_126" data-name="Group 126" transform="translate(15.595 11.641)">
          <path id="Path_826" data-name="Path 826" d="M231.788,189.133a.327.327,0,0,1,.025-.451c-.018.01-.057-.048-.022.018a.444.444,0,0,1,.02.209,2.442,2.442,0,0,1-.07.24c-.068-.033-.016-.311,0-.383.012-.047.091-.233.117-.209.1.1-.013.363-.068.453-.041.067-.07.036-.035.054a.255.255,0,0,1-.044-.044c.021.037.023.035.007-.007a.456.456,0,0,1-.012-.144.411.411,0,0,1,.018-.107c.012-.043-.08.05-.09-.05a.226.226,0,0,1-.121.2l.33.134a.094.094,0,0,1,.015-.126c.171-.234-.218-.457-.388-.227a.527.527,0,0,0-.06.472.227.227,0,0,0,.329.134.565.565,0,0,0,.154-.924.393.393,0,0,0-.5.072.725.725,0,0,0-.136.552c.035.35.371.654.717.445a.938.938,0,0,0,.332-.953.467.467,0,0,0-.778-.25,1.072,1.072,0,0,0-.253.94.452.452,0,0,0,.693.334.866.866,0,0,0,.262-.87.45.45,0,0,0-.717-.311.787.787,0,0,0-.051,1.117c.21.2.528-.118.317-.317Z" transform="translate(-231.259 -188.117)"/>
        </g>
        <g id="Group_127" data-name="Group 127" transform="translate(20.342 11.791)">
          <path id="Path_827" data-name="Path 827" d="M242.37,189.466a.327.327,0,0,1,.025-.451c-.018.01-.057-.048-.022.018a.442.442,0,0,1,.02.208,2.392,2.392,0,0,1-.07.24c-.068-.032-.016-.311,0-.383.012-.046.091-.233.117-.209.1.1-.013.363-.068.453-.041.067-.07.036-.035.055a.275.275,0,0,1-.044-.044c.021.037.023.035.007-.007a.457.457,0,0,1-.012-.144.409.409,0,0,1,.018-.107c.012-.043-.08.05-.09-.05a.227.227,0,0,1-.121.2l.329.134a.094.094,0,0,1,.015-.126c.171-.234-.218-.457-.388-.227a.528.528,0,0,0-.06.472.227.227,0,0,0,.329.134.565.565,0,0,0,.154-.924.393.393,0,0,0-.5.072.726.726,0,0,0-.136.552c.035.35.371.654.717.445a.938.938,0,0,0,.332-.953.467.467,0,0,0-.778-.25,1.072,1.072,0,0,0-.253.94.452.452,0,0,0,.693.334.866.866,0,0,0,.262-.87.45.45,0,0,0-.717-.311.787.787,0,0,0-.051,1.117c.21.2.528-.118.317-.317Z" transform="translate(-241.842 -188.45)"/>
        </g>
        <g id="Group_128" data-name="Group 128" transform="translate(14.507 8.859)">
          <path id="Path_828" data-name="Path 828" d="M229.216,183.038a2.808,2.808,0,0,1,1.748-.645.223.223,0,0,0,.216-.165l0-.033-.157.157.033,0c.285-.041.164-.473-.119-.432l-.033,0a.215.215,0,0,0-.157.157l0,.033.216-.165a3.254,3.254,0,0,0-2.065.776.224.224,0,0,0,.317.317Z" transform="translate(-228.834 -181.913)"/>
        </g>
        <g id="Group_129" data-name="Group 129" transform="translate(17.797 12.628)">
          <path id="Path_829" data-name="Path 829" d="M236.233,190.7c.3.3.737.36,1.047.636-.011-.091-.023-.181-.035-.272a2.933,2.933,0,0,1-.862.964c-.228.177.092.492.317.317a3.2,3.2,0,0,0,.933-1.055.227.227,0,0,0-.035-.272c-.31-.277-.756-.34-1.047-.636-.2-.206-.52.111-.317.317Z" transform="translate(-236.167 -190.316)"/>
        </g>
        <g id="Group_130" data-name="Group 130" transform="translate(16.229 16.251)">
          <path id="Path_830" data-name="Path 830" d="M232.834,199.062a4.346,4.346,0,0,0,3.126-.247c.245-.152.021-.54-.227-.387a3.877,3.877,0,0,1-2.78.2c-.283-.048-.4.384-.119.432Z" transform="translate(-232.672 -198.393)"/>
        </g>
        <g id="Group_131" data-name="Group 131" transform="translate(20.684 8.778)">
          <path id="Path_831" data-name="Path 831" d="M242.82,182.182a1.857,1.857,0,0,1,1.224.5c.188.221.5-.1.317-.317a2.318,2.318,0,0,0-1.541-.627c-.288-.028-.285.421,0,.449Z" transform="translate(-242.605 -181.732)"/>
        </g>
        <g id="Group_132" data-name="Group 132" transform="translate(11.581 18.845)">
          <path id="Path_832" data-name="Path 832" d="M222.386,204.548a9.2,9.2,0,0,0,3.837,1.889c.282.063.4-.369.119-.432a8.72,8.72,0,0,1-3.64-1.774c-.221-.183-.54.132-.317.317Z" transform="translate(-222.311 -204.176)"/>
        </g>
        <path id="Path_833" data-name="Path 833" d="M208.14,174.854c-3.2-3.476-.966-9.369,2.679-11.5s9.812-1.29,12.055,1.626c3.084,2.3,3.784,3.476,3.784,7.177,0,3.289-1.309,7.9-1.147,10.618.02.34,0,.795-.381.409-1.9-1.922-.433-7.52-.433-7.52a18.5,18.5,0,0,0,.477-5.881c-.225-.71-3.589-4.523-6.561-3.682-1.065,4.317-4.99,10.4-8.691,12-.561.056-.028-1.4.476-2.131A3.715,3.715,0,0,0,208.14,174.854Z" transform="translate(-202.068 -162.163)"/>
        <path id="Path_834" data-name="Path 834" d="M231.253,248.651a23.808,23.808,0,0,1,5.6,1.533c1.234,4.486.379,6.5.379,6.5s-3.925-1.607-6.317-2.5A14.664,14.664,0,0,0,231.253,248.651Z" transform="translate(-215.475 -209.857)" fill="#1dcb83"/>
        <path id="Path_835" data-name="Path 835" d="M204.962,221.476c.617,2.075,7.009,19.624,0,32.015-1.121.729-7.962-2.579-7.962-2.579.841-4.261,4.261-8.074,4.261-8.074s-4.654-10.317-4.766-15.251,2.243-5.495,5.887-5.495C202.139,221.439,204.55,221.29,204.962,221.476Z" transform="translate(-196.491 -194.83)" fill="#1dcb83"/>
        <path id="Path_836" data-name="Path 836" d="M210.461,205.333c1.121-2.747,3.476-3.906,4.149-3.85s-1.85,3.457-1.85,3.457c3.476.336,3.925,1.346,4.037,1.85a12.4,12.4,0,0,1-.056,2.187,2.575,2.575,0,0,1,.28,3.2c-.5.785-1.037,6.653-.934,9.793a20.956,20.956,0,0,1-.692,5.57,6.2,6.2,0,0,1-5.271-1.458s2.635-8.579,3.869-12.223c.841-2.691-1.009-5.046-1.738-6.055S210.069,205.837,210.461,205.333Z" transform="translate(-204.01 -183.845)" fill="#ffcba3"/>
        <path id="Path_837" data-name="Path 837" d="M206.814,247.943s-3.2.5-3.981,1.794a6.062,6.062,0,0,0-.075,4.841c1.121,1.234,1.757.785,2.355-1.159.236-.767.972-2.336.972-2.336Z" transform="translate(-199.689 -209.466)" fill="#ffcba3"/>
        <g id="Group_133" data-name="Group 133" transform="translate(8.504 17.352)">
          <path id="Path_838" data-name="Path 838" d="M216.072,201.963c.165-.125,1.48-.685,1.4-.533a4.767,4.767,0,0,1-.891,1.013,3.6,3.6,0,0,0-1.127,2.016.227.227,0,0,0,.157.276,12.1,12.1,0,0,1,2.887,1.115c.915.446.734,1.392.962,2.221a.224.224,0,0,0,.432-.119c-.208-.756-.1-1.5-.628-2.126a5.14,5.14,0,0,0-1.629-.906,7.5,7.5,0,0,0-1.905-.618l.157.276a4.334,4.334,0,0,1,1.451-2.271c.244-.257.659-.657.659-1.047,0-1.02-1.938.153-2.153.316s0,.562.227.387Z" transform="translate(-215.451 -200.847)"/>
        </g>
        <g id="Group_134" data-name="Group 134" transform="translate(10.653 23.287)">
          <path id="Path_839" data-name="Path 839" d="M220.276,214.411a30.364,30.364,0,0,0,1.906,2.523c.894,1.174.57,2.014.173,3.3a24.716,24.716,0,0,0-.889,6.038c-.144,2.875-.39,5.746-.586,8.618-.02.289.429.287.449,0,.2-2.958.465-5.916.6-8.878a28.729,28.729,0,0,1,.468-4.051c.213-1.125.711-2.19.884-3.313.254-1.646-1.868-3.236-2.616-4.467a.225.225,0,0,0-.388.227Z" transform="translate(-220.242 -214.078)"/>
        </g>
        <g id="Group_135" data-name="Group 135" transform="translate(5.665 26.993)">
          <path id="Path_840" data-name="Path 840" d="M209.123,222.555c.178,1.535-.041,5.038,2.015,5.431l-.1-.375c-.713.64-.529,1.334-.282,2.18a.224.224,0,0,0,.432-.119c-.166-.568-.439-1.2.166-1.744a.226.226,0,0,0-.1-.375c-1.735-.331-1.533-3.676-1.686-5-.033-.284-.482-.287-.449,0Z" transform="translate(-209.121 -222.341)"/>
        </g>
        <g id="Group_136" data-name="Group 136" transform="translate(21.15 26.593)">
          <path id="Path_841" data-name="Path 841" d="M243.923,221.73a31.191,31.191,0,0,1,.523,3.74c.029.552.113,1.478-.288,1.91-.278.3-.368.294-.5.685a.673.673,0,0,0,.093.454,12.566,12.566,0,0,1,.8,1.833c.4,1.175.332,2.407.61,3.6a.226.226,0,0,0,.41.054.315.315,0,0,0,.022-.285.224.224,0,0,0-.432.119l.022-.061.41.053c-.251-1.08-.218-2.184-.507-3.26-.25-.934-1.229-2.2-.48-3.013.481-.521.305-1.859.272-2.476a29.047,29.047,0,0,0-.519-3.474c-.05-.284-.482-.163-.432.119Z" transform="translate(-243.642 -221.448)"/>
        </g>
        <g id="Group_137" data-name="Group 137" transform="translate(18.344 39.093)">
          <path id="Path_842" data-name="Path 842" d="M237.546,249.758c1.339.359,2.616.9,3.925,1.346.573.2,1.16.346,1.734.541.641.218,1.175.655,1.8.917.266.112.382-.323.119-.433-.511-.215-.942-.586-1.458-.785-.569-.22-1.15-.39-1.734-.565-1.442-.43-2.81-1.064-4.265-1.454a.224.224,0,0,0-.119.432Z" transform="translate(-237.387 -249.317)"/>
        </g>
        <g id="Group_138" data-name="Group 138" transform="translate(22.946 40.106)">
          <path id="Path_843" data-name="Path 843" d="M247.921,252.237a6.169,6.169,0,0,1,2.179-.15c.224.006.828.1.893-.231.056-.283-.376-.4-.432-.119.035-.175-.313-.095-.461-.1-.187,0-.374-.011-.562-.012a5.123,5.123,0,0,0-1.737.178c-.272.093-.155.527.119.433Z" transform="translate(-247.648 -251.574)"/>
        </g>
        <g id="Group_139" data-name="Group 139" transform="translate(4.366 43.979)">
          <path id="Path_844" data-name="Path 844" d="M206.266,264.016c.5.694.982,1.742,1.874,2.027a3.514,3.514,0,0,0,2.68-.174c1.974-1.026,2.708-3.315,2.733-5.442a.224.224,0,0,0-.449,0,6.77,6.77,0,0,1-1.448,4.326,3.516,3.516,0,0,1-2.581,1.029c-1.261,0-1.779-1.107-2.422-1.992-.168-.231-.558-.008-.388.226Z" transform="translate(-206.224 -260.21)"/>
        </g>
        <g id="Group_140" data-name="Group 140" transform="translate(1.557 50.428)">
          <path id="Path_845" data-name="Path 845" d="M200.82,275a25.926,25.926,0,0,0,4.315,1.929L205,276.6c-.256.384-.514.765-.779,1.143a1.209,1.209,0,0,1-.645.567c-.321-.166-.629-.358-.937-.546a9.468,9.468,0,0,0-2.389-1.394l.157.276.014-.042c.1-.274-.338-.39-.432-.119l-.015.042a.225.225,0,0,0,.157.276,6.4,6.4,0,0,1,1.672.969c.618.383,1.232.762,1.878,1.1a.223.223,0,0,0,.271-.035c.514-.645.979-1.322,1.437-2.008a.226.226,0,0,0-.134-.329,25.246,25.246,0,0,1-4.208-1.883c-.261-.12-.489.266-.226.387Z" transform="translate(-199.963 -274.586)"/>
        </g>
        <g id="Group_141" data-name="Group 141" transform="translate(22.826 51.045)">
          <path id="Path_846" data-name="Path 846" d="M250.348,275.985a6.68,6.68,0,0,1-2.747.754.227.227,0,0,0-.216.284,11.187,11.187,0,0,0,.7,1.605c.076.187.179.541.422.584a2.765,2.765,0,0,0,1.308-.333c.808-.288,1.619-.566,2.444-.8a.225.225,0,0,0-.119-.433c-1.024.294-2.024.654-3.028,1.009-.506.179-.51.032-.7-.4a7.986,7.986,0,0,1-.594-1.348l-.216.284a7.166,7.166,0,0,0,2.973-.815c.263-.119.035-.505-.226-.387Z" transform="translate(-247.379 -275.963)"/>
        </g>
        <g id="Group_142" data-name="Group 142" transform="translate(4.019 40.602)">
          <path id="Path_847" data-name="Path 847" d="M206.548,252.752c-1.3,1.432-1.089,3.35-1.075,5.148a.224.224,0,0,0,.449,0c-.013-1.654-.264-3.506.943-4.831.195-.214-.122-.531-.317-.317Z" transform="translate(-205.452 -252.681)"/>
        </g>
        <g id="Group_143" data-name="Group 143" transform="translate(3.029 40.169)">
          <path id="Path_848" data-name="Path 848" d="M204.658,251.771c-1.484,1.251-1.418,3.022-1.411,4.812a.224.224,0,0,0,.449,0c-.007-1.665-.112-3.321,1.28-4.495.222-.187-.1-.5-.317-.317Z" transform="translate(-203.245 -251.715)"/>
        </g>
        <g id="Group_144" data-name="Group 144" transform="translate(8.966 21.816)">
          <path id="Path_849" data-name="Path 849" d="M216.946,211.883c-.115-.127.447-.414.533-.46a2.044,2.044,0,0,1,1.267-.138c.282.061.4-.371.119-.432a2.586,2.586,0,0,0-1.805.289c-.382.222-.816.633-.432,1.058.2.214.511-.1.317-.317Z" transform="translate(-216.479 -210.799)"/>
        </g>
        <g id="Group_145" data-name="Group 145" transform="translate(7.889 21.301)">
          <path id="Path_850" data-name="Path 850" d="M214.463,210.6a2.021,2.021,0,0,1,1.561-.5.224.224,0,0,0,0-.449,2.465,2.465,0,0,0-1.878.627c-.209.2.109.518.317.317Z" transform="translate(-214.078 -209.652)"/>
        </g>
        <g id="Group_146" data-name="Group 146" transform="translate(12.012 24.3)">
          <path id="Path_851" data-name="Path 851" d="M223.486,217.3a.793.793,0,0,0,.859-.747c.018-.289-.431-.287-.449,0a.348.348,0,0,1-.411.3c-.289-.02-.287.428,0,.449Z" transform="translate(-223.27 -216.338)"/>
        </g>
        <g id="Group_147" data-name="Group 147" transform="translate(6.058 24.103)">
          <path id="Path_852" data-name="Path 852" d="M212.2,216.283a5.743,5.743,0,0,1,1.625,4.977c-.27,1.6-.985,3.186-1.4,4.763-.349,1.32-.986,2.537-1.408,3.834-.369,1.136-.68,2.29-1,3.44a.224.224,0,0,0,.432.119c.833-2.969,2-5.807,2.79-8.778.45-1.694,1.252-3.165,1.091-4.967a6.239,6.239,0,0,0-1.808-3.7c-.2-.208-.518.109-.317.317Z" transform="translate(-209.998 -215.897)"/>
        </g>
        <g id="Group_148" data-name="Group 148" transform="translate(19 45.61)">
          <path id="Path_853" data-name="Path 853" d="M238.926,264.217c2.07,1.654,4.681,3.248,7.392,3.317a.224.224,0,0,0,0-.449c-2.558-.065-5.113-1.618-7.075-3.186-.223-.179-.543.137-.317.317Z" transform="translate(-238.849 -263.847)"/>
        </g>
        <g id="Group_149" data-name="Group 149" transform="translate(12.347 48.192)">
          <path id="Path_854" data-name="Path 854" d="M224.233,273.736c2.589-.039,4.708-1.834,6.193-3.812.174-.231-.216-.454-.388-.226-1.387,1.848-3.386,3.553-5.806,3.589a.224.224,0,0,0,0,.449Z" transform="translate(-224.017 -269.603)"/>
        </g>
        <path id="Path_855" data-name="Path 855" d="M212.916,429.443c.8,1.317,2.586,5.859,4.018,7.2.841.785,2.654.822,2.318-.131,2.3,2.018,2.355,2.243.617,2.3s-4.4.2-5.916-4.906c-.168,1.682.365,3.841-.028,3.784a5.771,5.771,0,0,0-.729-.056C213.2,432.751,211.009,431.237,212.916,429.443Z" transform="translate(-205.118 -309.554)"/>
        <g id="Group_150" data-name="Group 150" transform="translate(14.367 63.662)">
          <path id="Path_856" data-name="Path 856" d="M228.849,305.619a15.987,15.987,0,0,1,2.541-1.121c.264-.116.036-.5-.226-.387a15.973,15.973,0,0,0-2.542,1.121c-.239.159-.015.548.227.387Z" transform="translate(-228.52 -304.09)"/>
        </g>
        <g id="Group_151" data-name="Group 151" transform="translate(10.835 66.874)">
          <path id="Path_857" data-name="Path 857" d="M220.657,311.469c-.065,1.7.229,3.4.282,5.1.056,1.781.182,3.557.276,5.336.2,3.718.283,7.41.2,11.132a77.212,77.212,0,0,0,.4,10.854c.205,1.716.266,3.4.315,5.122.023.795.018,1.583-.029,2.376a19.868,19.868,0,0,0,.2,2.538c.018.287.467.289.449,0-.048-.727-.232-1.428-.216-2.161.019-.921.07-1.831.047-2.754a47.541,47.541,0,0,0-.315-5.122c-.231-1.752-.162-3.53-.338-5.288a46.169,46.169,0,0,1-.067-5.566c.081-3.723,0-7.414-.2-11.132-.1-1.779-.221-3.555-.276-5.336-.053-1.7-.347-3.405-.282-5.1.011-.289-.438-.288-.449,0Z" transform="translate(-220.647 -311.252)"/>
        </g>
        <g id="Group_152" data-name="Group 152" transform="translate(14.645 100.366)">
          <path id="Path_858" data-name="Path 858" d="M229.153,386.135a30.863,30.863,0,0,0,.167,3.25,13.454,13.454,0,0,0,.215,2.865.224.224,0,0,0,.432-.119,14.643,14.643,0,0,1-.216-3.081,27.521,27.521,0,0,1-.149-2.916c.015-.289-.433-.287-.449,0Z" transform="translate(-229.142 -385.919)"/>
        </g>
        <g id="Group_153" data-name="Group 153" transform="translate(19.974 71.429)">
          <path id="Path_859" data-name="Path 859" d="M244.908,321.688c.448,2.65,1.339,5.205,1.684,7.874a23.679,23.679,0,0,1-.891,8.49c-.651,2.67-1.422,5.354-2.2,7.989-.39,1.311-.832,2.588-1.155,3.919a24.413,24.413,0,0,1-1.3,4.224c-.116.261.27.49.388.226,1.11-2.5,1.53-5.265,2.377-7.858.936-2.865,1.713-5.867,2.428-8.794a24.218,24.218,0,0,0,.806-8.2c-.289-2.712-1.247-5.309-1.7-7.993-.048-.285-.48-.164-.432.119Z" transform="translate(-241.021 -321.406)"/>
        </g>
        <g id="Group_154" data-name="Group 154" transform="translate(14.507 65.075)">
          <path id="Path_860" data-name="Path 860" d="M229.066,307.4a11.153,11.153,0,0,0-.087,2.1c-.014,1.064-.131,2.125-.145,3.19a.224.224,0,0,0,.449,0c.01-.8.064-1.595.111-2.392a20.15,20.15,0,0,1,.105-2.781c.057-.283-.375-.4-.432-.119Z" transform="translate(-228.834 -307.242)"/>
        </g>
        <g id="Group_155" data-name="Group 155" transform="translate(11.22 56.093)">
          <path id="Path_861" data-name="Path 861" d="M221.668,288.039a27.078,27.078,0,0,0,4.085.558,10.765,10.765,0,0,0,3.884-.932c.266-.1.151-.538-.119-.433a11.866,11.866,0,0,1-3.765.916,19.587,19.587,0,0,1-3.966-.542c-.283-.044-.4.388-.119.433Z" transform="translate(-221.505 -287.217)"/>
        </g>
        <g id="Group_156" data-name="Group 156" transform="translate(8.689 7.16)">
          <path id="Path_862" data-name="Path 862" d="M219.914,178.2c-1.47,1.851-2.53,3.98-4,5.831-.178.224.138.544.317.317,1.47-1.851,2.53-3.981,4-5.831.178-.224-.137-.544-.317-.317Z" transform="translate(-215.862 -178.126)"/>
        </g>
        <g id="Group_157" data-name="Group 157" transform="translate(15.979 2.324)">
          <path id="Path_863" data-name="Path 863" d="M232.384,168.184a6.093,6.093,0,0,1,4.254,0c.275.091.393-.343.119-.432a6.407,6.407,0,0,0-4.493,0c-.266.1-.15.539.119.432Z" transform="translate(-232.114 -167.344)"/>
        </g>
        <g id="Group_158" data-name="Group 158" transform="translate(6.953 1.415)">
          <path id="Path_864" data-name="Path 864" d="M219.434,165.319c-2.816.112-5.878,1.164-7.408,3.7a.225.225,0,0,0,.388.227c1.446-2.4,4.367-3.372,7.02-3.478.288-.011.289-.46,0-.449Z" transform="translate(-211.993 -165.319)"/>
        </g>
        <g id="Group_159" data-name="Group 159" transform="translate(9.46 2.091)">
          <path id="Path_865" data-name="Path 865" d="M222.008,166.83a8.9,8.9,0,0,0-4.36,2.786.224.224,0,0,0,.317.317,8.495,8.495,0,0,1,4.163-2.671c.283-.06.163-.492-.119-.432Z" transform="translate(-217.581 -166.824)"/>
        </g>
        <g id="Group_160" data-name="Group 160" transform="translate(5.865 42.017)">
          <path id="Path_866" data-name="Path 866" d="M209.606,256.165a4.225,4.225,0,0,0,3.782,1.681.224.224,0,0,0,0-.449,3.791,3.791,0,0,1-3.395-1.459c-.158-.24-.547-.016-.388.226Z" transform="translate(-209.568 -255.836)"/>
        </g>
        <g id="Group_161" data-name="Group 161" transform="translate(15.178 38.503)">
          <path id="Path_867" data-name="Path 867" d="M230.817,248.218a19.275,19.275,0,0,1-.478,5.66.224.224,0,0,0,.432.119,19.693,19.693,0,0,0,.494-5.779.224.224,0,0,0-.449,0Z" transform="translate(-230.329 -248.002)"/>
        </g>
        <g id="Group_162" data-name="Group 162" transform="translate(8.19 118.775)">
          <path id="Path_868" data-name="Path 868" d="M214.75,427.176a7.129,7.129,0,0,0,.345,2.022.224.224,0,0,0,.432-.119,6.715,6.715,0,0,1-.328-1.9.224.224,0,0,0-.449,0Z" transform="translate(-214.75 -426.96)"/>
        </g>
        <g id="Group_163" data-name="Group 163" transform="translate(7.866 123.075)">
          <path id="Path_869" data-name="Path 869" d="M214.081,436.939a4.8,4.8,0,0,1,1.1,1.957c.061.283.494.163.432-.119a5.3,5.3,0,0,0-1.216-2.155c-.182-.225-.5.095-.317.317Z" transform="translate(-214.027 -436.545)"/>
        </g>
      </g>
    </g>
  </g>
</svg>
