<svg xmlns="http://www.w3.org/2000/svg" width="197.148" height="146.289" viewBox="0 0 197.148 146.289">
  <g id="Group_2455" data-name="Group 2455" transform="translate(-88.926 -200)">
    <path id="Icon_metro-chart-dots" data-name="Icon metro-chart-dots" d="M5.666,32.521H37.33v4.523H1.143V.857H5.666ZM11.32,30.26a3.393,3.393,0,0,1,0-6.785c.1,0,.2.005.3.014l3.647-6.078a3.393,3.393,0,1,1,5.684,0l3.647,6.078q.148-.013.3-.014c.075,0,.15,0,.224.008l6.02-10.536a3.393,3.393,0,1,1,2.8,1.48c-.076,0-.15,0-.224-.008l-6.02,10.536a3.393,3.393,0,1,1-5.644.06L18.4,18.937c-.1.008-.2.014-.3.014s-.2-.005-.3-.014l-3.647,6.078A3.392,3.392,0,0,1,11.32,30.26Z" transform="translate(168.264 309.245)" fill="#1dcb83"/>
    <g id="Group_67" data-name="Group 67" transform="translate(-55.312 122)">
      <g id="Group_25" data-name="Group 25" transform="translate(195.643 78)">
        <g id="Group_18" data-name="Group 18" transform="translate(17.475)">
          <circle id="Ellipse_5" data-name="Ellipse 5" cx="23.249" cy="23.249" r="23.249" transform="translate(2.452 2.452)" fill="#1b1b25"/>
          <circle id="Ellipse_6" data-name="Ellipse 6" cx="23.249" cy="23.249" r="23.249" fill="#ffb54a"/>
          <path id="Path_630" data-name="Path 630" d="M344.409,126.746a18.725,18.725,0,1,1,18.725-18.725A18.746,18.746,0,0,1,344.409,126.746Zm0-36.236a17.511,17.511,0,1,0,17.511,17.511A17.531,17.531,0,0,0,344.409,90.51Z" transform="translate(-321.159 -84.726)" fill="#fcf0e3"/>
          <g id="Group_17" data-name="Group 17" transform="translate(15.521 11.342)">
            <g id="Group_16" data-name="Group 16">
              <path id="Path_631" data-name="Path 631" d="M359.225,126.383a13.268,13.268,0,0,1-3.382-.876,12.867,12.867,0,0,1-2.978-1.685l2.1-3.072a16.146,16.146,0,0,0,2.142,1.388,8.145,8.145,0,0,0,2.251.795v-4.285a18.534,18.534,0,0,1-2.547-.889,6.378,6.378,0,0,1-1.806-1.159,4.4,4.4,0,0,1-1.078-1.577,5.553,5.553,0,0,1-.364-2.089v-.054a5.021,5.021,0,0,1,.4-2.048,4.676,4.676,0,0,1,1.145-1.59,5.848,5.848,0,0,1,1.792-1.091,8.769,8.769,0,0,1,2.318-.553v-1.563h2.8v1.617a11.255,11.255,0,0,1,5.012,1.994l-1.805,3.153a15.436,15.436,0,0,0-1.644-.956,8.319,8.319,0,0,0-1.7-.634v4.069a10.255,10.255,0,0,1,4.46,2.183,4.8,4.8,0,0,1,1.388,3.611v.054a4.882,4.882,0,0,1-.418,2.048,4.833,4.833,0,0,1-1.159,1.59,6.031,6.031,0,0,1-1.792,1.1,8.442,8.442,0,0,1-2.344.566v2.668h-2.8Zm.135-15.415a2.436,2.436,0,0,0-1.415.58,1.484,1.484,0,0,0-.445,1.091v.054a1.59,1.59,0,0,0,.377,1.064,3.61,3.61,0,0,0,1.482.849Zm2.533,12.1q1.913-.3,1.913-1.725v-.054a1.637,1.637,0,0,0-.4-1.145,3.9,3.9,0,0,0-1.509-.849Z" transform="translate(-352.865 -106.037)" fill="#1b1b25"/>
            </g>
          </g>
        </g>
        <g id="Group_21" data-name="Group 21" transform="translate(17.475)">
          <circle id="Ellipse_7" data-name="Ellipse 7" cx="23.249" cy="23.249" r="23.249" transform="translate(2.452 2.452)" fill="#1b1b25"/>
          <circle id="Ellipse_8" data-name="Ellipse 8" cx="23.249" cy="23.249" r="23.249" fill="#1dcb83"/>
          <path id="Path_632" data-name="Path 632" d="M344.409,126.746a18.725,18.725,0,1,1,18.725-18.725A18.746,18.746,0,0,1,344.409,126.746Zm0-36.236a17.511,17.511,0,1,0,17.511,17.511A17.531,17.531,0,0,0,344.409,90.51Z" transform="translate(-321.159 -84.726)" fill="#fcf0e3"/>
          <g id="Group_20" data-name="Group 20" transform="translate(15.521 11.342)">
            <g id="Group_19" data-name="Group 19">
              <path id="Path_633" data-name="Path 633" d="M359.225,126.383a13.268,13.268,0,0,1-3.382-.876,12.867,12.867,0,0,1-2.978-1.685l2.1-3.072a16.146,16.146,0,0,0,2.142,1.388,8.145,8.145,0,0,0,2.251.795v-4.285a18.534,18.534,0,0,1-2.547-.889,6.378,6.378,0,0,1-1.806-1.159,4.4,4.4,0,0,1-1.078-1.577,5.553,5.553,0,0,1-.364-2.089v-.054a5.021,5.021,0,0,1,.4-2.048,4.676,4.676,0,0,1,1.145-1.59,5.848,5.848,0,0,1,1.792-1.091,8.769,8.769,0,0,1,2.318-.553v-1.563h2.8v1.617a11.255,11.255,0,0,1,5.012,1.994l-1.805,3.153a15.436,15.436,0,0,0-1.644-.956,8.319,8.319,0,0,0-1.7-.634v4.069a10.255,10.255,0,0,1,4.46,2.183,4.8,4.8,0,0,1,1.388,3.611v.054a4.882,4.882,0,0,1-.418,2.048,4.833,4.833,0,0,1-1.159,1.59,6.031,6.031,0,0,1-1.792,1.1,8.442,8.442,0,0,1-2.344.566v2.668h-2.8Zm.135-15.415a2.436,2.436,0,0,0-1.415.58,1.484,1.484,0,0,0-.445,1.091v.054a1.59,1.59,0,0,0,.377,1.064,3.61,3.61,0,0,0,1.482.849Zm2.533,12.1q1.913-.3,1.913-1.725v-.054a1.637,1.637,0,0,0-.4-1.145,3.9,3.9,0,0,0-1.509-.849Z" transform="translate(-352.865 -106.037)" fill="#1b1b25"/>
            </g>
          </g>
        </g>
        <g id="Group_24" data-name="Group 24" transform="translate(5.93 0.86)">
          <circle id="Ellipse_9" data-name="Ellipse 9" cx="10.52" cy="10.52" r="10.52" transform="translate(1.11 1.11)" fill="#1b1b25"/>
          <circle id="Ellipse_10" data-name="Ellipse 10" cx="10.52" cy="10.52" r="10.52" fill="#1dcb83"/>
          <path id="Path_634" data-name="Path 634" d="M299.495,102.181a8.473,8.473,0,1,1,8.473-8.473A8.482,8.482,0,0,1,299.495,102.181Zm0-16.4a7.923,7.923,0,1,0,7.923,7.924A7.932,7.932,0,0,0,299.495,85.785Z" transform="translate(-288.975 -83.168)" fill="#fcf0e3"/>
          <g id="Group_23" data-name="Group 23" transform="translate(7.023 5.132)">
            <g id="Group_22" data-name="Group 22">
              <path id="Path_635" data-name="Path 635" d="M306.2,102.017a6.013,6.013,0,0,1-1.53-.4,5.812,5.812,0,0,1-1.347-.762l.951-1.39a7.332,7.332,0,0,0,.969.628,3.694,3.694,0,0,0,1.018.36V98.518a8.391,8.391,0,0,1-1.153-.4,2.892,2.892,0,0,1-.817-.524,2,2,0,0,1-.488-.713,2.518,2.518,0,0,1-.165-.945v-.025a2.266,2.266,0,0,1,.183-.926,2.12,2.12,0,0,1,.518-.72,2.646,2.646,0,0,1,.811-.494,3.958,3.958,0,0,1,1.049-.25v-.708h1.268v.732a5.094,5.094,0,0,1,2.268.9l-.817,1.426a7.068,7.068,0,0,0-.744-.433,3.765,3.765,0,0,0-.768-.286v1.841a4.644,4.644,0,0,1,2.018.988,2.175,2.175,0,0,1,.628,1.634v.025a2.21,2.21,0,0,1-.189.926,2.188,2.188,0,0,1-.525.72,2.737,2.737,0,0,1-.811.5,3.828,3.828,0,0,1-1.061.256v1.207H306.2Zm.061-6.974a1.1,1.1,0,0,0-.64.262.671.671,0,0,0-.2.494v.024a.718.718,0,0,0,.171.482,1.63,1.63,0,0,0,.671.384Zm1.146,5.475q.866-.134.866-.78v-.024a.741.741,0,0,0-.183-.519,1.761,1.761,0,0,0-.683-.384Z" transform="translate(-303.322 -92.811)" fill="#1b1b25"/>
            </g>
          </g>
        </g>
        <path id="Path_636" data-name="Path 636" d="M275.872,139.375h0a4.568,4.568,0,0,0-4.568-4.568h0a4.568,4.568,0,0,0,4.568-4.569h0a4.569,4.569,0,0,0,4.569,4.569h0A4.568,4.568,0,0,0,275.872,139.375Z" transform="translate(-271.304 -109.105)" fill="#fff"/>
        <path id="Path_637" data-name="Path 637" d="M410.316,199.72h0a3.355,3.355,0,0,0-3.355-3.355h0a3.355,3.355,0,0,0,3.355-3.355h0a3.355,3.355,0,0,0,3.355,3.355h0A3.355,3.355,0,0,0,410.316,199.72Z" transform="translate(-352.081 -146.483)" fill="#fff"/>
        <path id="Path_638" data-name="Path 638" d="M351.968,231.374h0a6.169,6.169,0,0,0-6.169-6.169h0a6.17,6.17,0,0,0,6.169-6.169h0a6.169,6.169,0,0,0,6.169,6.169h0A6.169,6.169,0,0,0,351.968,231.374Z" transform="translate(-315.662 -161.98)" fill="#fff"/>
        <path id="Path_639" data-name="Path 639" d="M405.186,114.858h0a5.782,5.782,0,0,0-5.781-5.781h0a5.781,5.781,0,0,0,5.781-5.781h0a5.781,5.781,0,0,0,5.781,5.781h0A5.781,5.781,0,0,0,405.186,114.858Z" transform="translate(-347.582 -93.062)" fill="#fcf0e3"/>
        <path id="Path_640" data-name="Path 640" d="M456.773,132.143h0a3.189,3.189,0,0,0-3.189-3.189h0a3.189,3.189,0,0,0,3.189-3.189h0a3.189,3.189,0,0,0,3.189,3.189h0A3.189,3.189,0,0,0,456.773,132.143Z" transform="translate(-379.843 -106.442)" fill="#fff"/>
      </g>
      <g id="Group_47" data-name="Group 47" transform="translate(247.31 108.072)">
        <g id="Group_31" data-name="Group 31" transform="translate(0 6.162)">
          <g id="Group_30" data-name="Group 30">
            <g id="Group_29" data-name="Group 29">
              <g id="Group_27" data-name="Group 27">
                <path id="Path_641" data-name="Path 641" d="M418.324,209.434l.013-.045,5.681-19.766-.024-.019a7.1,7.1,0,0,1,2.273-2.518,6.578,6.578,0,0,0,2.622-4.34c1.251-1.211,2.661-2.244,3.938-3.427a.9.9,0,0,0,.311-.436.76.76,0,0,0-.162-.568,2.255,2.255,0,0,0-2.878-.667,7,7,0,0,0-1.613,1.053,7.988,7.988,0,0,0-1.278,1.093l4.52-9.65a1.608,1.608,0,0,0-.584-2.173h0a1.342,1.342,0,0,0-1.142.023,1.815,1.815,0,0,0-.629.5l.022-.112c-5.293-4.451-11.825,10.7-11.825,10.7l-1.854,4.374-15.722,29.15a8.47,8.47,0,0,0,3.785,11.554h0c.062.03.125.057.186.085a8.541,8.541,0,0,0,4.282,1.146h30.94l6.667-15.846Zm8.815-29.493Z" transform="translate(-399.019 -167.564)" fill="#fec29e"/>
                <g id="Group_26" data-name="Group 26" transform="translate(13.457 41.824)">
                  <path id="Path_642" data-name="Path 642" d="M443.378,278.69l-.792,2.755C442.874,280.493,443.144,279.559,443.378,278.69Z" transform="translate(-438.418 -275.558)" fill="none"/>
                  <path id="Path_643" data-name="Path 643" d="M432.831,310.46Z" transform="translate(-432.283 -294.466)" fill="#ff887c" opacity="0.17"/>
                  <path id="Path_644" data-name="Path 644" d="M433.652,310.485l.253.008Z" transform="translate(-433.098 -294.491)" fill="#ff887c" opacity="0.17"/>
                  <path id="Path_645" data-name="Path 645" d="M439.331,270.949l-.9,3.132c-.234.869-.5,1.8-.792,2.755l-1.088,3.785a8.544,8.544,0,0,1-.564,1.38c-.937,2.8-1.709,4.95-1.709,4.95l11.127-15.932C442.637,271.019,442,270.952,439.331,270.949Z" transform="translate(-433.471 -270.949)" fill="#ff887c" opacity="0.17"/>
                  <path id="Path_646" data-name="Path 646" d="M433.638,310.484h0Z" transform="translate(-433.09 -294.49)" fill="#ff887c" opacity="0.17"/>
                </g>
                <path id="Path_647" data-name="Path 647" d="M457.553,197.39a.2.2,0,0,1-.158-.313,3.6,3.6,0,0,1,4.656-1.216.2.2,0,0,1-.192.343,3.163,3.163,0,0,0-4.148,1.107A.2.2,0,0,1,457.553,197.39Z" transform="translate(-433.757 -184.173)" fill="#fb8e77"/>
                <path id="Path_648" data-name="Path 648" d="M468.507,169.491a29.947,29.947,0,0,0-2.247,3.233,14.646,14.646,0,0,0-.893,1.739,4.276,4.276,0,0,0-.42,1.827v.012a.2.2,0,1,1-.392.021v0a4.6,4.6,0,0,1,.487-1.994,15.014,15.014,0,0,1,.95-1.763,30.278,30.278,0,0,1,2.335-3.22.117.117,0,0,1,.182.147Z" transform="translate(-438.042 -168.597)" fill="#fb8e77"/>
                <path id="Path_649" data-name="Path 649" d="M464.529,168.053a7.391,7.391,0,0,0-1.4,1.319,11.72,11.72,0,0,0-1.111,1.591,14.072,14.072,0,0,0-.848,1.748c-.128.3-.224.609-.338.912l-.281.932,0,.011a.2.2,0,0,1-.376-.113v0l.305-.947c.122-.309.226-.624.363-.927a14.384,14.384,0,0,1,.9-1.774,12.03,12.03,0,0,1,1.172-1.611,7.584,7.584,0,0,1,1.485-1.344.122.122,0,0,1,.136.2Z" transform="translate(-435.428 -167.719)" fill="#fb8e77"/>
                <path id="Path_650" data-name="Path 650" d="M460.142,168.473a19.061,19.061,0,0,0-2.055,2.539,10.8,10.8,0,0,0-.81,1.405,5.743,5.743,0,0,0-.5,1.507v0a.2.2,0,1,1-.388-.061v0a6.094,6.094,0,0,1,.567-1.6,11.24,11.24,0,0,1,.869-1.427,19.358,19.358,0,0,1,2.151-2.526.114.114,0,0,1,.164.16Z" transform="translate(-433.181 -167.988)" fill="#fb8e77"/>
              </g>
              <g id="Group_28" data-name="Group 28" transform="translate(27.621 41.812)">
                <path id="Path_651" data-name="Path 651" d="M530.388,299.757l-7.59-20.689c-.9-4.54-5.222-7.981-10.418-7.981l-21.2-.169-23.885.091v15.923h7.413l-3.825,41.531,52.6.3-.295-28.123Z" transform="translate(-467.294 -270.918)" fill="#1dcb83"/>
                <path id="Path_652" data-name="Path 652" d="M494.106,339.631" transform="translate(-483.259 -311.833)" fill="none" stroke="#fb8e77" stroke-linecap="round" stroke-miterlimit="10" stroke-width="1"/>
              </g>
              <path id="Path_653" data-name="Path 653" d="M491.138,271.1l.041-.177-23.885.091v15.923h7.413l.039-.42C474.745,278.108,482.052,271.279,491.138,271.1Z" transform="translate(-439.673 -229.106)" fill="#1b1b25" opacity="0.05"/>
              <path id="Path_654" data-name="Path 654" d="M451.619,214.4s1.341,11.386,1.42,11.112l2.3-8Z" transform="translate(-430.34 -195.452)" fill="#ff887c" opacity="0.18"/>
            </g>
          </g>
        </g>
        <g id="Group_34" data-name="Group 34" transform="translate(37.907 63.463)">
          <g id="Group_32" data-name="Group 32">
            <path id="Path_655" data-name="Path 655" d="M507.4,328.5l-2.007-10.117-1.549-7.805a1.707,1.707,0,0,0-2-1.338l-7.753,1.539a1.706,1.706,0,0,0-1.338,2l1.559,7.856,1.236,6.231.761,3.835a1.707,1.707,0,0,0,2,1.338l4.579-.909,3.174-.63A1.707,1.707,0,0,0,507.4,328.5Z" transform="translate(-492.721 -309.207)" fill="#1b1b25"/>
          </g>
          <g id="Group_33" data-name="Group 33" transform="translate(0.331 9.176)">
            <path id="Path_656" data-name="Path 656" d="M549.158,351.329l-3.5-15.224-15.9,1.945.873,3.872-.08-.02-17.28-4.278-.015.021a5.789,5.789,0,0,1-2.161-1.986,5.172,5.172,0,0,0-3.882-2.225c-.469-.492-.906-1.016-1.338-1.546l.4,2.041-.1.053a6.549,6.549,0,0,1-3.577.744l-7.6-.593a1.156,1.156,0,0,0-1.137.646c-2.224,4.675,7.325,8.952,9.5,9.856h0l.077.032.089.036.083.034.07.028.065.026.025.01.032.013,3.737,1.4,29.584,14.562a8.574,8.574,0,0,0,.833.346,7.377,7.377,0,0,0,4.742.49h0A8.581,8.581,0,0,0,549.158,351.329Z" transform="translate(-493.54 -331.889)" fill="#fec29e"/>
            <path id="Path_657" data-name="Path 657" d="M601.35,355.489l-18.265-8.371c.61,2.656.255,1.484.792,3.853l1.243.308C590.38,351.633,601.35,355.489,601.35,355.489Z" transform="translate(-546.859 -340.957)" fill="#ff887c" opacity="0.17"/>
          </g>
          <path id="Path_658" data-name="Path 658" d="M575.79,330.755a.2.2,0,0,1-.192-.157l-2.282-11.054a.2.2,0,1,1,.384-.08l2.246,10.877,7.686-.978a.2.2,0,0,1,.05.39l-7.867,1Z" transform="translate(-540.709 -315.221)" fill="#1b1b25" opacity="0.35"/>
        </g>
        <g id="Group_35" data-name="Group 35" transform="translate(92.729 87.171)">
          <path id="Path_659" data-name="Path 659" d="M628.542,369.366l.031.157Z" transform="translate(-628.417 -368.737)" fill="#ff887c" opacity="0.17"/>
          <path id="Path_660" data-name="Path 660" d="M628.619,369.753c0,.01,0,.011,0,0Z" transform="translate(-628.463 -368.967)" fill="#ff887c" opacity="0.17"/>
          <path id="Path_661" data-name="Path 661" d="M628.234,367.811s.043.214.083.419C628.3,368.118,628.269,367.987,628.234,367.811Z" transform="translate(-628.234 -367.811)" fill="#ff887c" opacity="0.17"/>
          <path id="Path_662" data-name="Path 662" d="M628.439,368.847l.042.21Z" transform="translate(-628.356 -368.428)" fill="#ff887c" opacity="0.17"/>
        </g>
        <g id="Group_46" data-name="Group 46" transform="translate(42.779 0)">
          <g id="Group_37" data-name="Group 37">
            <path id="Path_663" data-name="Path 663" d="M533.173,159.489a6.252,6.252,0,0,0-9.346-4.507,5.505,5.505,0,0,0-8.54-1.093,7.268,7.268,0,0,0-8.056,11.954l-1.478,7.9a4.176,4.176,0,0,0,3.336,4.872l17.512,3.278a4.175,4.175,0,0,0,4.872-3.336l2.869-15.326A4.17,4.17,0,0,0,533.173,159.489Z" transform="translate(-504.764 -152.334)" fill="#1b1b25"/>
            <g id="Group_36" data-name="Group 36" transform="translate(1.581 3.188)">
              <path id="Path_664" data-name="Path 664" d="M509.975,168.5a.2.2,0,0,1-.166-.091,5.887,5.887,0,0,1,1.224-8.156.2.2,0,0,1,.229.319,5.426,5.426,0,0,0-1.121,7.628.2.2,0,0,1-.166.3Z" transform="translate(-508.671 -160.214)" fill="#fcf0e3"/>
            </g>
          </g>
          <g id="Group_39" data-name="Group 39" transform="translate(0.46 13.241)">
            <g id="Group_38" data-name="Group 38">
              <path id="Path_665" data-name="Path 665" d="M531.017,194.455l-.383-.072-3.866-8.309a6.256,6.256,0,0,1-2.615-1.011,4.707,4.707,0,0,1-6.646.279,7.261,7.261,0,0,1-8.778.619l-2.693,14.385a7.923,7.923,0,0,0,1,5.544,8.047,8.047,0,0,0,5.663,4.836v9.5a6.017,6.017,0,0,0,6,6h1.893a6.017,6.017,0,0,0,6-6V209.439a8.011,8.011,0,0,0,1.963-3.932l.492-2.627.383.072a4.217,4.217,0,0,0,4.906-3.359l.043-.231A4.218,4.218,0,0,0,531.017,194.455Z" transform="translate(-505.9 -185.063)" fill="#fec29e"/>
            </g>
            <path id="Path_666" data-name="Path 666" d="M529.822,228.28l-.351,1.874a7.963,7.963,0,0,1-9.292,6.362l-6.112-1.144a7.936,7.936,0,0,1-5.364-3.748,8.052,8.052,0,0,0,5.99,4.914l.244.046a6.012,6.012,0,0,0,5.4,3.412h1.917a6.019,6.019,0,0,0,5.837-4.639,8.022,8.022,0,0,0,2.128-4.117l.492-2.627Z" transform="translate(-507.569 -210.797)" fill="#ff887c" opacity="0.32"/>
          </g>
          <g id="Group_45" data-name="Group 45" transform="translate(1.614 18.399)">
            <path id="Path_667" data-name="Path 667" d="M566.281,217.269a.194.194,0,0,1-.12-.041l-1.527-1.185a.2.2,0,0,1-.014-.3l1.883-1.777a.2.2,0,1,1,.269.286l-1.716,1.62,1.346,1.045a.2.2,0,0,1-.121.351Z" transform="translate(-541.982 -207.4)" fill="#fb8e77"/>
            <g id="Group_44" data-name="Group 44" transform="translate(0)">
              <g id="Group_43" data-name="Group 43" transform="translate(1.89)">
                <g id="Group_42" data-name="Group 42">
                  <g id="Group_40" data-name="Group 40" transform="translate(9.059)">
                    <path id="Path_668" data-name="Path 668" d="M539.457,200.379a2.321,2.321,0,0,1-.9-.343c-.3-.163-.609-.32-.881-.446s-.59-.262-.909-.388a2.313,2.313,0,0,1-.84-.469c-.188-.208-.151-.535.288-.754a2.661,2.661,0,0,1,2.172.148,2.581,2.581,0,0,1,1.487,1.557C539.975,200.156,539.74,200.391,539.457,200.379Z" transform="translate(-535.818 -197.813)" fill="#1b1b25"/>
                  </g>
                  <g id="Group_41" data-name="Group 41" transform="translate(0 0.324)">
                    <path id="Path_669" data-name="Path 669" d="M513.638,199.781a2.606,2.606,0,0,0,.944.195c.342.03.685.067.981.108s.638.1.975.165a2.585,2.585,0,0,0,.959.071c.268-.06.409-.32.153-.7a2.85,2.85,0,0,0-1.918-.969,2.742,2.742,0,0,0-2.08.409C513.317,199.358,513.392,199.649,513.638,199.781Z" transform="translate(-513.427 -198.615)" fill="#1b1b25"/>
                  </g>
                </g>
              </g>
              <rect id="Rectangle_372" data-name="Rectangle 372" width="0.998" height="1.604" rx="0.499" transform="matrix(-0.983, -0.184, 0.184, -0.983, 12.206, 6.016)" fill="#1b1b25"/>
              <rect id="Rectangle_373" data-name="Rectangle 373" width="0.998" height="1.604" rx="0.499" transform="matrix(-0.983, -0.184, 0.184, -0.983, 3.747, 4.641)" fill="#1b1b25"/>
              <path id="Rectangle_374" data-name="Rectangle 374" d="M.618,0H2.332A.618.618,0,0,1,2.95.618v0a.618.618,0,0,1-.618.618H.618A.618.618,0,0,1,0,.618v0A.618.618,0,0,1,.618,0Z" transform="matrix(-0.994, -0.112, 0.112, -0.994, 14.385, 8.433)" fill="#ff887c" opacity="0.17"/>
              <path id="Rectangle_375" data-name="Rectangle 375" d="M.618,0H2.333A.617.617,0,0,1,2.95.617v0a.618.618,0,0,1-.618.618H.618A.618.618,0,0,1,0,.618v0A.618.618,0,0,1,.618,0Z" transform="matrix(-0.994, -0.112, 0.112, -0.994, 2.932, 6.629)" fill="#ff887c" opacity="0.17"/>
              <path id="Path_670" data-name="Path 670" d="M522.453,234.494a.2.2,0,0,1-.116-.354,1.855,1.855,0,0,1,2.116,0,.2.2,0,0,1-.225.322,1.473,1.473,0,0,0-1.659,0A.2.2,0,0,1,522.453,234.494Z" transform="translate(-516.794 -219.243)" fill="#fb8e77"/>
              <path id="Path_671" data-name="Path 671" d="M526.022,220.757l4.589-.656-.5,1.594a2.451,2.451,0,0,1-2.338,1.714h0a1.629,1.629,0,0,1-1.62-1.455Z" transform="translate(-519.036 -211.084)" fill="#fff"/>
              <path id="Path_672" data-name="Path 672" d="M524.581,206.973a.193.193,0,0,1-.05-.006l-1.423-.37a2,2,0,0,1-1.246-2.909l2.167-3.9a.2.2,0,1,1,.343.19l-2.167,3.9a1.61,1.61,0,0,0,1,2.339l1.423.37a.2.2,0,0,1-.049.386Z" transform="translate(-516.409 -198.928)" fill="#fb8e77"/>
            </g>
          </g>
        </g>
      </g>
      <g id="Group_66" data-name="Group 66" transform="translate(144.238 117.656)">
        <g id="Group_51" data-name="Group 51" transform="translate(3.042 0)">
          <g id="Group_50" data-name="Group 50">
            <g id="Group_48" data-name="Group 48" transform="translate(52.795)">
              <path id="Path_673" data-name="Path 673" d="M315.415,221.149,299.693,192l-1.854-4.374s-6.531-15.15-11.825-10.7l.022.112a1.818,1.818,0,0,0-.629-.5,1.343,1.343,0,0,0-1.142-.023h0a1.608,1.608,0,0,0-.583,2.173l4.52,9.65a7.988,7.988,0,0,0-1.278-1.093,7,7,0,0,0-1.613-1.053,2.255,2.255,0,0,0-2.878.667.76.76,0,0,0-.162.568.9.9,0,0,0,.311.436c1.277,1.183,2.687,2.216,3.938,3.426a6.579,6.579,0,0,0,2.622,4.341,7.1,7.1,0,0,1,2.273,2.518l-.024.019,5.694,19.811-8.316.111v15.846h18.392a8.536,8.536,0,0,0,4.287-1.149c.061-.028.122-.053.182-.082h0A8.469,8.469,0,0,0,315.415,221.149Z" transform="translate(-282.261 -176.074)" fill="#fec29e"/>
              <path id="Path_674" data-name="Path 674" d="M315.023,295.493h0s-4.274-11.5-5.008-16c-2.832,0-3.262.126-6.094.126Z" transform="translate(-295.158 -237.634)" fill="#ff887c" opacity="0.17"/>
              <path id="Path_675" data-name="Path 675" d="M301.033,205.934a.2.2,0,0,1-.158-.08,3.163,3.163,0,0,0-4.148-1.107.2.2,0,0,1-.192-.343,3.6,3.6,0,0,1,4.656,1.216.2.2,0,0,1-.158.313Z" transform="translate(-290.701 -192.684)" fill="#fb8e77"/>
              <path id="Path_676" data-name="Path 676" d="M291.449,177.875a16.465,16.465,0,0,1,1.322,1.507,16.285,16.285,0,0,1,1.137,1.652,12.124,12.124,0,0,1,.879,1.814,7.748,7.748,0,0,1,.441,1.988.2.2,0,1,1-.392.031v-.011a7.372,7.372,0,0,0-.382-1.889,11.754,11.754,0,0,0-.818-1.776,16.038,16.038,0,0,0-1.083-1.643,16.3,16.3,0,0,0-1.269-1.507l0,0a.117.117,0,0,1,.167-.164Z" transform="translate(-287.613 -177.106)" fill="#fb8e77"/>
              <path id="Path_677" data-name="Path 677" d="M294.762,176.039a5.174,5.174,0,0,1,1.548,1.341,10.642,10.642,0,0,1,1.128,1.681,17.365,17.365,0,0,1,.87,1.823l.357.943.317.957a.2.2,0,0,1-.373.123v0l0-.009-.295-.948-.334-.934a17.063,17.063,0,0,0-.818-1.8,10.343,10.343,0,0,0-1.067-1.656,5,5,0,0,0-1.425-1.295l-.018-.01a.121.121,0,0,1,.113-.214Z" transform="translate(-289.599 -176.026)" fill="#fb8e77"/>
              <path id="Path_678" data-name="Path 678" d="M300.078,176.843a9.772,9.772,0,0,1,1.2,1.168,11.22,11.22,0,0,1,1.008,1.332,10.6,10.6,0,0,1,.808,1.466,10.986,10.986,0,0,1,.579,1.577.2.2,0,1,1-.376.113v0l0-.01a10.632,10.632,0,0,0-.521-1.534,10.3,10.3,0,0,0-.748-1.442,10.934,10.934,0,0,0-.951-1.323,9.523,9.523,0,0,0-1.134-1.163l0,0a.114.114,0,0,1,.146-.176Z" transform="translate(-292.759 -176.497)" fill="#fb8e77"/>
              <path id="Path_679" data-name="Path 679" d="M303.079,226.759l6.076-.75-3.757,7.473S304.279,227.925,303.079,226.759Z" transform="translate(-294.657 -205.788)" fill="#ff887c" opacity="0.18"/>
            </g>
            <g id="Group_49" data-name="Group 49" transform="translate(0 41.936)">
              <path id="Path_680" data-name="Path 680" d="M188.56,279.764v.007c-.094,0-.187-.007-.281-.007h-19.2a9.749,9.749,0,0,0-9.116,6.3h0l-.029.08-.014.038-8.165,22.256,7.58.927v24.716h41.251l3.085-38.468h7.176V279.686Z" transform="translate(-151.757 -279.686)" fill="#fff"/>
              <path id="Path_681" data-name="Path 681" d="M266.092,279.686l-21.916.091v0a15.424,15.424,0,0,1,14.773,15.409l-.034.42h7.176Z" transform="translate(-206.788 -279.686)" fill="#1b1b25" opacity="0.05"/>
              <path id="Path_682" data-name="Path 682" d="M281.432,348.174" transform="translate(-228.972 -320.467)" fill="none" stroke="#fb8e77" stroke-linecap="round" stroke-miterlimit="10" stroke-width="1"/>
            </g>
          </g>
        </g>
        <g id="Group_54" data-name="Group 54" transform="translate(0 57.334)">
          <path id="Path_683" data-name="Path 683" d="M259.791,319.321l-7.753-1.539a1.707,1.707,0,0,0-2,1.338l-1.549,7.805-2.007,10.117a1.707,1.707,0,0,0,1.338,2l3.174.63,4.579.909a1.708,1.708,0,0,0,2-1.338l.761-3.835,1.236-6.231,1.559-7.856A1.706,1.706,0,0,0,259.791,319.321Z" transform="translate(-205.099 -317.75)" fill="#1b1b25"/>
          <g id="Group_53" data-name="Group 53" transform="translate(0 3.281)">
            <path id="Path_684" data-name="Path 684" d="M199.742,343.244a1.13,1.13,0,0,0-.434-.477c-.033-.049-.06-.1-.1-.146l-.186.023a1.177,1.177,0,0,0-.422-.047l-7.6.593a6.549,6.549,0,0,1-3.577-.743l-.183-.1.381-1.918c-.41.5-.826,1-1.269,1.469a5.315,5.315,0,0,0-2.7,1.018,4.88,4.88,0,0,0-1.252,1.284A6.21,6.21,0,0,1,181,345.711a4.822,4.822,0,0,1-.649.4l-.015-.021-17.281,4.278-.08.02.877-3.891-15.9-1.926-3.5,15.224a8.581,8.581,0,0,0,6.442,10.284h0a7.38,7.38,0,0,0,4.743-.49,8.571,8.571,0,0,0,.833-.346l29.25-14.4,3.965-1.486s.161-.061.441-.178l-.058-.012C191.883,352.431,202.027,348.046,199.742,343.244Z" transform="translate(-144.238 -334.537)" fill="#fec29e"/>
            <g id="Group_52" data-name="Group 52" transform="translate(1.084 12.037)">
              <path id="Path_685" data-name="Path 685" d="M146.957,377.875l-.031.157Z" transform="translate(-146.922 -368.87)" fill="#ff887c" opacity="0.17"/>
              <path id="Path_686" data-name="Path 686" d="M164.775,359.487c.358-1.648.254-1.506.8-3.871l-18.269,8.39s1.81-.545,4.308-1.208c.232-.085.468-.163.712-.229Z" transform="translate(-147.147 -355.616)" fill="#ff887c" opacity="0.17"/>
              <path id="Path_687" data-name="Path 687" d="M147.047,377.321l-.044.224C147.014,377.488,147.029,377.412,147.047,377.321Z" transform="translate(-146.968 -368.54)" fill="#ff887c" opacity="0.17"/>
              <path id="Path_688" data-name="Path 688" d="M146.921,378.264c0,.023,0,.025,0,0Z" transform="translate(-146.917 -369.102)" fill="#ff887c" opacity="0.17"/>
              <path id="Path_689" data-name="Path 689" d="M147.19,376.354l-.078.391Z" transform="translate(-147.033 -367.964)" fill="#ff887c" opacity="0.17"/>
            </g>
            <path id="Path_690" data-name="Path 690" d="M190.706,338.095l-.024,0-3.469-.428a.2.2,0,0,1,.048-.39l3.281.4,1.826-11.653a.2.2,0,1,1,.388.06L190.9,337.928A.2.2,0,0,1,190.706,338.095Z" transform="translate(-169.725 -325.861)" fill="#1b1b25" opacity="0.35"/>
          </g>
          <path id="Path_691" data-name="Path 691" d="M206.117,357.076l7.832-.2c1.461.192,3.787-1.126,3.516-2.575h0Z" transform="translate(-181.084 -339.517)" fill="#ff887c" opacity="0.08"/>
        </g>
        <g id="Group_65" data-name="Group 65" transform="translate(11.8 1.312)">
          <g id="Group_55" data-name="Group 55">
            <path id="Path_692" data-name="Path 692" d="M211.346,214.956l-2.664-18.126a20.027,20.027,0,0,0-1.678-5.588l1.446-.232s-1.015-14.713-17.516-11.2a20.065,20.065,0,0,0-4.989.108h0a14.671,14.671,0,0,0-12.382,16.648l1.553,10.566a14.67,14.67,0,0,0,16.648,12.382l18.178-2.671A1.664,1.664,0,0,0,211.346,214.956Z" transform="translate(-173.406 -179.268)" fill="#1b1b25"/>
            <path id="Path_693" data-name="Path 693" d="M239.843,194.1a.2.2,0,0,1-.027-.39l5.306-.725a.156.156,0,0,0,.106-.064.147.147,0,0,0,.027-.112,10.573,10.573,0,0,0-5.309-7.011.2.2,0,0,1,.172-.353,10.984,10.984,0,0,1,5.523,7.294.535.535,0,0,1-.1.412.552.552,0,0,1-.371.223l-5.306.725Z" transform="translate(-212.849 -182.932)" fill="#fcf0e3"/>
          </g>
          <g id="Group_57" data-name="Group 57" transform="translate(6.786 9.334)">
            <g id="Group_56" data-name="Group 56">
              <path id="Path_694" data-name="Path 694" d="M215.5,205.22l-14.525,2.334-3.525-5.214a11.729,11.729,0,0,1-3.6,9.575s-.044-.06-.12-.17l-.12.023a4.217,4.217,0,0,0-3.359,4.906h0a4.217,4.217,0,0,0,4.906,3.359l.278-.052a10.818,10.818,0,0,0,3.143,5.5v9.309a6.018,6.018,0,0,0,6,6h0a6.017,6.017,0,0,0,6-6v-7.352a10.888,10.888,0,0,0,5.33-5.344l.006-.01a10.727,10.727,0,0,0,1.339-7.5Z" transform="translate(-190.18 -202.34)" fill="#fec29e"/>
            </g>
            <path id="Path_695" data-name="Path 695" d="M216.4,252.929h0a10.774,10.774,0,0,1-12.224-7.248c-.054-.166-1,.051-.978.153a10.82,10.82,0,0,0,3.162,5.447,6.018,6.018,0,0,0,5.972,5.447h0a6.013,6.013,0,0,0,5.315-3.233,10.877,10.877,0,0,0,6.021-5.638A10.744,10.744,0,0,1,216.4,252.929Z" transform="translate(-197.929 -228.111)" fill="#ff887c" opacity="0.32"/>
          </g>
          <g id="Group_64" data-name="Group 64" transform="translate(9.235 14.17)">
            <path id="Path_696" data-name="Path 696" d="M196.776,234.438a.2.2,0,0,1-.121-.351l1.3-1.013-1.666-1.572a.2.2,0,0,1,.269-.286l1.832,1.729a.2.2,0,0,1-.015.3L196.9,234.4A.2.2,0,0,1,196.776,234.438Z" transform="translate(-196.233 -224.34)" fill="#fb8e77"/>
            <g id="Group_63" data-name="Group 63" transform="translate(10.117)">
              <g id="Group_62" data-name="Group 62">
                <g id="Group_61" data-name="Group 61" transform="translate(0.616)">
                  <g id="Group_60" data-name="Group 60">
                    <g id="Group_58" data-name="Group 58" transform="translate(0 1.421)">
                      <path id="Path_697" data-name="Path 697" d="M223.024,219.331a1.38,1.38,0,0,0,.535-.2c.179-.1.362-.19.523-.265s.35-.155.54-.231a1.371,1.371,0,0,0,.5-.278c.111-.123.089-.318-.171-.448a1.581,1.581,0,0,0-1.289.088,1.531,1.531,0,0,0-.883.924C222.717,219.2,222.857,219.338,223.024,219.331Z" transform="translate(-222.764 -217.807)" fill="#1b1b25"/>
                    </g>
                    <g id="Group_59" data-name="Group 59" transform="translate(8.273)">
                      <path id="Path_698" data-name="Path 698" d="M245.611,215.429a1.382,1.382,0,0,1-.571-.048c-.2-.044-.4-.083-.576-.11s-.38-.053-.583-.072a1.367,1.367,0,0,1-.557-.129c-.141-.088-.174-.281.04-.478a1.58,1.58,0,0,1,1.263-.271,1.531,1.531,0,0,1,1.1.644C245.87,215.217,245.774,215.389,245.611,215.429Z" transform="translate(-243.212 -214.295)" fill="#1b1b25"/>
                    </g>
                  </g>
                </g>
                <path id="Path_699" data-name="Path 699" d="M230.567,239.287a3.867,3.867,0,0,1-2.7-1.28.2.2,0,0,1,.3-.251,3.121,3.121,0,0,0,3.632.854.2.2,0,0,1,.165.356A3.319,3.319,0,0,1,230.567,239.287Z" transform="translate(-225.16 -228.223)" fill="#fb8e77"/>
                <path id="Path_700" data-name="Path 700" d="M237.211,226.107a.2.2,0,0,1-.038-.389l1.38-.271a1.587,1.587,0,0,0,1.249-1.861.574.574,0,0,0-.672-.451,1.342,1.342,0,0,1-1.574-1.056l-.333-1.693a.2.2,0,0,1,.385-.076l.333,1.693a.948.948,0,0,0,1.113.747.966.966,0,0,1,1.134.761,1.98,1.98,0,0,1-1.559,2.323l-1.38.271A.21.21,0,0,1,237.211,226.107Z" transform="translate(-230.633 -217.782)" fill="#fb8e77"/>
                <path id="Path_701" data-name="Path 701" d="M226.83,227.489h0a.487.487,0,0,1-.567-.388l-.108-.579a.487.487,0,0,1,.388-.566h0a.487.487,0,0,1,.567.388l.108.579A.487.487,0,0,1,226.83,227.489Z" transform="translate(-224.162 -221.233)" fill="#1b1b25"/>
                <path id="Path_702" data-name="Path 702" d="M247.173,224.184h0a.487.487,0,0,1-.566-.388l-.108-.579a.487.487,0,0,1,.388-.567h0a.487.487,0,0,1,.566.388l.108.579A.487.487,0,0,1,247.173,224.184Z" transform="translate(-236.275 -219.265)" fill="#1b1b25"/>
                <path id="Path_703" data-name="Path 703" d="M223.565,233.4l-1.657.187a.6.6,0,0,1-.665-.53h0a.6.6,0,0,1,.53-.665l1.657-.186a.6.6,0,0,1,.665.53h0A.6.6,0,0,1,223.565,233.4Z" transform="translate(-221.24 -224.958)" fill="#ff887c" opacity="0.17"/>
                <path id="Path_704" data-name="Path 704" d="M251.109,229.062l-1.657.186a.6.6,0,0,1-.665-.53h0a.6.6,0,0,1,.53-.665l1.657-.186a.6.6,0,0,1,.665.53h0A.6.6,0,0,1,251.109,229.062Z" transform="translate(-237.64 -222.374)" fill="#ff887c" opacity="0.17"/>
                <path id="Path_705" data-name="Path 705" d="M239.41,251.2a.194.194,0,0,1-.115-.038,1.427,1.427,0,0,0-1.608,0,.2.2,0,0,1-.225-.322,1.811,1.811,0,0,1,2.065,0,.2.2,0,0,1-.116.355Z" transform="translate(-230.849 -235.861)" fill="#fb8e77"/>
              </g>
            </g>
          </g>
        </g>
      </g>
    </g>
  </g>
</svg>
