<svg xmlns="http://www.w3.org/2000/svg" width="13.114" height="12.825" viewBox="0 0 13.114 12.825">
  <g id="Group_2439" data-name="Group 2439" transform="translate(-309 -768)">
    <path id="Icon_material-notifications-active" data-name="Icon material-notifications-active" d="M5,2.706l-.941-.941a6.856,6.856,0,0,0-2.71,5.163H2.669A5.555,5.555,0,0,1,5,2.706Zm8.149,4.222h1.315a6.9,6.9,0,0,0-2.71-5.163l-.934.941a5.587,5.587,0,0,1,2.328,4.222Zm-1.3.329A4.007,4.007,0,0,0,8.9,3.1V2.653a.987.987,0,0,0-1.973,0V3.1a4,4,0,0,0-2.96,4.157v3.288L2.649,11.861v.658H13.172v-.658l-1.315-1.315V7.257ZM7.911,14.492a1.152,1.152,0,0,0,.263-.026,1.334,1.334,0,0,0,.947-.776,1.32,1.32,0,0,0,.1-.513H6.589A1.325,1.325,0,0,0,7.911,14.492Z" transform="translate(307.647 766.333)"/>
  </g>
</svg>
