<svg xmlns="http://www.w3.org/2000/svg" width="16" height="12" viewBox="0 0 16 12">
  <path id="Icon_awesome-chart-line" data-name="Icon awesome-chart-line" d="M15.5,12H2V2.5A.5.5,0,0,0,1.5,2H.5a.5.5,0,0,0-.5.5V13a1,1,0,0,0,1,1H15.5a.5.5,0,0,0,.5-.5v-1A.5.5,0,0,0,15.5,12Zm-1-9H10.811a.75.75,0,0,0-.53,1.28l1.012,1.012L9,7.586,6.707,5.293a1,1,0,0,0-1.414,0L3.147,7.44a.5.5,0,0,0,0,.707l.707.707a.5.5,0,0,0,.707,0L6,7.414,8.293,9.707a1,1,0,0,0,1.414,0l3-3,1.012,1.012A.75.75,0,0,0,15,7.189V3.5A.5.5,0,0,0,14.5,3Z" transform="translate(0 -2)"/>
</svg>
