<svg xmlns="http://www.w3.org/2000/svg" width="16" height="16" viewBox="0 0 16 16">
  <path id="Icon_metro-chart-dots" data-name="Icon metro-chart-dots" d="M3.143,14.857h14v2h-16v-16h2Zm2.5-1a1.5,1.5,0,0,1,0-3c.044,0,.088,0,.131.006L7.386,8.176a1.5,1.5,0,1,1,2.513,0l1.612,2.687q.065-.006.131-.006c.033,0,.066,0,.1,0L14.4,6.2a1.5,1.5,0,1,1,1.239.655c-.033,0-.066,0-.1,0l-2.662,4.658a1.5,1.5,0,1,1-2.5.027L8.774,8.851c-.043,0-.087.006-.131.006s-.088,0-.131-.006L6.9,11.538a1.5,1.5,0,0,1-1.257,2.319Z" transform="translate(-1.143 -0.857)"/>
</svg>
