<svg xmlns="http://www.w3.org/2000/svg" width="20.374" height="13.497" viewBox="0 0 20.374 13.497">
  <g id="Group_166" data-name="Group 166" transform="translate(-239.263 -764.502)">
    <path id="Icon_ionic-md-arrow-round-back" data-name="Icon ionic-md-arrow-round-back" d="M12.544,9H5.856L8.45,11.481a1.034,1.034,0,0,1,0,1.413.924.924,0,0,1-1.35,0L2.781,8.706a.952.952,0,0,1-.281-.7V7.994a.952.952,0,0,1,.281-.7L7.1,3.106a.924.924,0,0,1,1.35,0,1.034,1.034,0,0,1,0,1.413L5.853,7h6.687A.978.978,0,0,1,13.5,8,.968.968,0,0,1,12.544,9Z" transform="translate(252.45 762.002) rotate(90)"/>
    <path id="Icon_ionic-md-arrow-round-back-2" data-name="Icon ionic-md-arrow-round-back" d="M12.544,9H5.856L8.45,11.481a1.034,1.034,0,0,1,0,1.413.924.924,0,0,1-1.35,0L2.781,8.706a.952.952,0,0,1-.281-.7V7.994a.952.952,0,0,1,.281-.7L7.1,3.106a.924.924,0,0,1,1.35,0,1.034,1.034,0,0,1,0,1.413L5.853,7h6.687A.978.978,0,0,1,13.5,8,.968.968,0,0,1,12.544,9Z" transform="translate(246.45 780.498) rotate(-90)"/>
  </g>
</svg>
